<svg id="Layer_5" enable-background="new 0 0 64 64" height="512" viewBox="0 0 64 64" width="512" xmlns="http://www.w3.org/2000/svg"><g fill="#f0bc5e"><path d="m26.4 41h-8.8l.4-5h8z"/><path d="m28 55h-8.38c-.703.615-1.613 1-2.62 1h-3.22c-.48.532-.78 1.229-.78 2v2c0 1.654 1.346 3 3 3h12c1.654 0 3-1.346 3-3v-2c0-1.654-1.346-3-3-3z"/><path d="m46.4 41h-8.8l.4-5h8z"/><path d="m47 56c-1.008 0-1.917-.385-2.62-1h-8.38c-1.654 0-3 1.346-3 3v2c0 1.654 1.346 3 3 3h12c1.654 0 3-1.346 3-3v-2c0-.771-.301-1.468-.78-2z"/></g><path d="m28 47h2v2h-2z"/><path d="m34 47h2v2h-2z"/><path d="m60.211 46.186-1.267-2.534c-4.214-8.429-11.926-14.23-20.902-16.043 4.699-2.261 7.958-7.055 7.958-12.609h4c1.654 0 3-1.346 3-3s-1.346-3-3-3h-5.316c-2.004-4.804-6.768-8-12-8h-2.684c-7.168 0-13 5.832-13 13v1h1c0 5.554 3.259 10.348 7.958 12.609-8.976 1.813-16.688 7.614-20.902 16.043l-1.267 2.534c-.517 1.033-.789 2.189-.789 3.342 0 4.12 3.352 7.472 7.472 7.472h6.528c2.757 0 5-2.243 5-5 0-2.387-1.684-4.382-3.924-4.877l.844-10.123h6.175l.629 6.295c-1.015.482-1.724 1.509-1.724 2.705v4c0 1.549 1.184 2.812 2.692 2.969l.203 2.031h1.105c.323 0 .629.065.921.16l-.216-2.16h6.59l-.216 2.16c.292-.095.598-.16.921-.16h1.105l.203-2.031c1.508-.157 2.692-1.42 2.692-2.969v-4c0-1.196-.709-2.223-1.724-2.705l.629-6.295h6.175l.844 10.123c-2.24.495-3.924 2.49-3.924 4.877 0 2.757 2.243 5 5 5h6.528c4.12 0 7.472-3.352 7.472-7.472 0-1.153-.272-2.309-.789-3.342zm-10.211-35.186c.552 0 1 .449 1 1s-.448 1-1 1h-16.293c.933-1.251 2.399-2 4.001-2zm-18.002-7.882c1.003.551 3.7 2.318 5.111 5.923-2.422.205-4.558 1.623-5.661 3.828l-.066.131h-5.335c.411-6.374 4.616-9.16 5.951-9.882zm10.483 5.882h-3.265c-.83-2.502-2.186-4.311-3.479-5.56 2.886.842 5.355 2.847 6.744 5.56zm-13.859-5.904c-2 1.79-4.294 4.919-4.575 9.904h-5.003c.466-5.142 4.488-9.263 9.578-9.904zm-8.622 11.904h24c0 6.617-5.383 12-12 12s-12-5.383-12-12zm15.858 14.264c-.453 2.17-2.014 3.736-3.858 3.736s-3.405-1.566-3.858-3.736c1.266-.172 2.553-.264 3.858-.264s2.592.092 3.858.264zm-15.858 22.736c0 1.654-1.346 3-3 3h-5v-6h5c1.654 0 3 1.346 3 3zm18-2c0 .551-.448 1-1 1h-10c-.552 0-1-.449-1-1v-4c0-.551.448-1 1-1h10c.552 0 1 .449 1 1zm14 5h-5c-1.654 0-3-1.346-3-3s1.346-3 3-3h5zm2-.02v-7.98h-2v-4h-2v4h-2.08l-1-12h-9.825l-.8 8h-8.59l-.8-8h-9.825l-1 12h-2.08v-4h-2v4h-2v7.98c-2.797-.24-5-2.594-5-5.452 0-.844.2-1.691.578-2.447l1.267-2.534c3.905-7.809 11.021-13.207 19.319-14.944.624 3.13 3.008 5.397 5.836 5.397s5.212-2.267 5.836-5.397c8.298 1.736 15.414 7.135 19.319 14.944l1.267 2.533c.378.757.578 1.604.578 2.448 0 2.858-2.203 5.212-5 5.452z"/></svg>